<?xml version="1.0" standalone="no"?>
<!DOCTYPE svg PUBLIC "-//W3C//DTD SVG 20010904//EN"
 "http://www.w3.org/TR/2001/REC-SVG-20010904/DTD/svg10.dtd">
<svg version="1.0" xmlns="http://www.w3.org/2000/svg"
 width="612.000000pt" height="612.000000pt" viewBox="0 0 612.000000 612.000000"
 preserveAspectRatio="xMidYMid meet">

<g transform="translate(0.000000,612.000000) scale(0.100000,-0.100000)"
fill="#000000" stroke="none">
<path d="M3290 5890 c-19 -4 -48 -12 -63 -19 -16 -6 -39 -11 -53 -11 -14 0
-35 -6 -47 -14 -12 -8 -40 -17 -62 -20 -67 -12 -245 -69 -245 -79 0 -10 22 -7
125 13 95 18 141 22 125 11 -8 -5 -32 -13 -52 -16 -21 -4 -38 -11 -38 -17 0
-5 -30 -23 -67 -40 -69 -32 -68 -53 1 -24 20 8 36 11 36 7 0 -12 -77 -42 -92
-36 -8 3 -41 2 -76 -3 -36 -5 -62 -5 -62 0 0 17 -43 -4 -109 -52 -36 -26 -105
-68 -152 -92 -48 -25 -106 -60 -130 -79 -24 -20 -68 -50 -97 -68 -69 -44 -165
-150 -199 -220 -39 -83 -73 -172 -73 -193 0 -10 -4 -18 -9 -18 -21 0 -73 -61
-101 -118 -32 -66 -39 -100 -15 -68 18 23 20 14 4 -16 -9 -17 -8 -23 5 -30 20
-11 21 -54 1 -92 -9 -16 -13 -36 -10 -44 3 -7 0 -33 -6 -57 -9 -37 -8 -59 11
-137 23 -93 40 -132 40 -90 0 36 17 26 67 -38 26 -33 51 -59 57 -57 6 2 28
-20 49 -50 21 -29 43 -53 50 -53 21 -1 69 -49 76 -77 12 -45 28 -37 34 16 7
63 24 98 40 82 13 -13 67 -15 67 -2 0 5 -5 11 -10 13 -6 2 3 21 19 43 17 22
31 45 31 50 0 15 52 43 69 37 8 -3 11 0 7 7 -4 6 0 14 8 17 9 3 14 10 11 14
-3 4 6 7 20 6 14 0 25 -4 25 -8 0 -5 7 -8 16 -8 10 0 14 6 10 15 -3 8 -1 15 4
15 6 0 10 -5 10 -10 0 -17 53 1 75 25 43 48 56 67 50 73 -4 4 -12 -1 -20 -11
-18 -25 -28 3 -12 37 13 26 50 45 40 20 -3 -8 0 -14 6 -14 12 0 40 27 74 71
14 19 17 20 12 5 -5 -16 -3 -17 10 -6 11 9 14 22 9 45 -4 22 -1 35 10 44 9 8
16 19 16 26 0 6 8 19 18 27 19 16 92 41 107 37 6 -2 20 2 33 9 12 7 22 10 22
6 0 -14 41 47 51 76 6 16 15 30 20 30 5 0 9 7 9 15 0 9 6 18 14 21 8 3 12 12
10 19 -11 27 66 44 87 19 14 -17 41 -18 56 -3 7 7 27 8 64 1 30 -5 74 -9 99
-8 40 1 45 4 44 24 -1 22 20 30 31 12 4 -6 11 -8 16 -4 5 3 16 0 24 -6 12 -10
17 -7 25 15 9 23 14 26 40 20 19 -4 30 -3 30 4 0 7 8 7 26 1 14 -6 43 -7 64
-4 30 5 52 0 105 -25 46 -22 76 -30 94 -26 19 4 36 -2 61 -20 18 -14 41 -25
49 -25 8 0 32 -12 53 -26 52 -36 89 -118 103 -225 1 -14 14 -50 28 -80 14 -30
30 -66 36 -81 6 -16 18 -28 27 -28 11 0 15 -6 11 -20 -3 -13 0 -20 8 -20 22 0
45 -42 45 -83 0 -25 4 -36 11 -32 6 5 8 22 3 49 -3 22 -7 68 -8 101 -1 33 -6
67 -11 75 -5 8 -10 40 -10 70 -1 43 3 59 18 72 15 13 18 24 12 45 -11 39 -13
86 -4 98 3 6 8 26 11 46 3 28 -1 40 -15 49 -10 6 -17 14 -14 17 3 3 -3 20 -14
39 -22 40 -24 60 -6 67 6 3 1 6 -13 6 -15 1 -30 5 -36 11 -6 6 -10 2 -11 -12
-2 -19 -18 -37 -34 -38 -9 0 15 68 29 82 7 7 12 26 12 43 1 27 2 28 14 12 11
-15 15 -15 19 -3 24 63 15 242 -20 366 -30 107 -98 190 -191 232 -82 36 -132
62 -132 70 0 21 -59 70 -125 102 -117 57 -210 78 -355 81 -69 1 -141 -1 -160
-5z m345 -50 c19 -8 19 -9 -2 -9 -12 -1 -25 4 -28 9 -7 12 2 12 30 0z m541
-482 c13 -26 20 -49 15 -52 -4 -3 -18 16 -31 42 -13 26 -29 52 -35 57 -7 6
-15 19 -19 30 -13 37 44 -26 70 -77z m-19 -70 c-3 -8 -6 -5 -6 6 -1 11 2 17 5
13 3 -3 4 -12 1 -19z m94 -211 c-10 -9 -11 -8 -5 6 3 10 9 15 12 12 3 -3 0
-11 -7 -18z m-1679 -769 c-7 -7 -12 -8 -12 -2 0 6 3 14 7 17 3 4 9 5 12 2 2
-3 -1 -11 -7 -17z"/>
<path d="M2840 4539 c0 -5 5 -7 10 -4 6 3 10 8 10 11 0 2 -4 4 -10 4 -5 0 -10
-5 -10 -11z"/>
<path d="M2513 4220 c-10 -11 -23 -20 -30 -20 -14 0 -17 -12 -7 -23 6 -5 64
48 64 58 0 10 -11 4 -27 -15z"/>
<path d="M2467 4153 c-4 -3 -7 -11 -7 -17 0 -6 5 -5 12 2 6 6 9 14 7 17 -3 3
-9 2 -12 -2z"/>
<path d="M2443 4041 c-38 -36 -50 -54 -46 -69 6 -26 -3 -31 -117 -62 -88 -25
-95 -28 -98 -54 -4 -34 13 -56 44 -56 31 0 40 -19 57 -121 42 -237 126 -373
259 -418 134 -45 324 -37 436 20 36 18 59 24 63 17 7 -11 54 70 127 217 38 78
99 163 124 173 13 6 110 -92 146 -148 45 -72 142 -202 162 -217 22 -18 35 -16
19 4 -16 19 -9 18 66 -11 52 -20 208 -20 300 -1 215 46 311 182 330 468 8 112
17 137 55 159 21 12 30 25 30 42 0 30 -22 37 -170 56 -71 10 -101 18 -118 34
-23 20 -24 20 -37 3 -13 -18 -14 -18 -40 -1 -26 17 -32 17 -143 -5 -65 -12
-144 -29 -178 -37 -75 -17 -74 -17 -74 1 0 13 -9 11 -45 -9 -25 -14 -45 -24
-45 -21 0 13 -80 -39 -85 -55 -10 -31 -101 -63 -181 -64 -42 -1 -77 4 -86 11
-8 7 -24 14 -35 16 -19 3 -73 52 -73 67 0 4 -18 6 -40 5 -22 -1 -40 2 -40 8 0
5 -6 5 -14 -2 -10 -8 -22 -7 -49 4 -20 8 -54 15 -75 15 -22 0 -59 11 -85 24
-26 14 -54 22 -66 19 -12 -3 -27 0 -35 6 -9 7 -29 9 -56 5 -30 -5 -44 -3 -50
6 -4 7 -26 15 -47 17 -36 3 -44 -1 -90 -46z m1781 -77 c43 -41 57 -85 57 -182
0 -91 -26 -214 -57 -274 -49 -95 -126 -145 -269 -174 -140 -29 -297 0 -359 65
-23 24 -76 142 -76 171 0 11 48 -6 135 -47 116 -54 177 -52 226 11 l20 26 -21
0 c-16 0 -20 4 -16 18 5 15 -3 23 -35 37 -34 16 -38 20 -23 26 24 8 44 1 44
-17 0 -12 4 -12 23 1 13 8 26 12 30 9 9 -9 158 26 182 42 11 8 27 14 37 14 9
0 22 9 28 21 9 17 7 26 -15 55 -15 20 -43 42 -63 51 -21 8 -45 19 -54 24 -10
5 -32 9 -50 10 -32 0 -86 17 -61 18 7 1 10 7 8 14 -7 18 16 41 56 55 42 14 86
16 94 2 4 -6 12 -6 23 -1 25 14 56 24 65 23 4 -1 7 5 7 13 0 23 32 18 64 -11z
m-1578 -76 c36 -17 34 -63 -3 -74 -32 -8 -31 -8 -58 -18 -51 -19 -86 -41 -126
-82 -42 -43 -43 -45 -21 -50 12 -4 22 -12 22 -19 0 -15 38 -31 47 -21 4 3 17
-1 30 -9 13 -9 32 -13 42 -10 10 3 24 -1 31 -10 7 -8 23 -15 37 -15 30 0 40
-25 19 -49 -40 -44 -5 -62 135 -67 l109 -3 65 44 c36 25 73 45 83 45 10 0 24
6 31 13 11 10 13 7 9 -13 -35 -177 -50 -206 -126 -244 -71 -35 -137 -48 -244
-48 -187 1 -277 49 -342 185 -87 182 -91 370 -9 424 51 33 96 43 171 38 40 -3
84 -11 98 -17z m864 -43 c0 -22 -8 -43 -20 -55 -11 -11 -19 -28 -17 -37 1 -10
-2 -20 -8 -23 -18 -9 -4 72 18 112 12 21 23 38 25 38 1 0 2 -16 2 -35z m-430
-15 c4 -30 0 -40 -19 -40 -10 0 -21 8 -25 18 -3 9 -9 23 -12 31 -5 10 -1 13
15 8 12 -3 21 0 21 6 0 16 18 -4 20 -23z m951 -68 c-7 -2 -18 1 -23 6 -8 8 -4
9 13 5 13 -4 18 -8 10 -11z m-761 -22 c0 -5 -5 -10 -11 -10 -5 0 -7 5 -4 10 3
6 8 10 11 10 2 0 4 -4 4 -10z m670 -22 c0 -11 -30 -37 -42 -38 -12 0 -9 35 3
47 13 13 39 6 39 -9z m-793 -20 c-3 -8 -6 -5 -6 6 -1 11 2 17 5 13 3 -3 4 -12
1 -19z m-459 -43 c6 -14 8 -25 4 -25 -13 1 -42 27 -42 39 0 21 27 11 38 -14z"/>
<path d="M3721 3154 c0 -11 3 -14 6 -6 3 7 2 16 -1 19 -3 4 -6 -2 -5 -13z"/>
<path d="M3489 3107 c-20 -12 -51 -32 -70 -44 -28 -19 -42 -21 -94 -17 -33 3
-74 12 -92 20 -51 23 -87 27 -146 14 -52 -10 -56 -13 -55 -40 1 -22 8 -32 29
-40 52 -22 53 -35 9 -70 -32 -25 -39 -37 -34 -53 5 -16 3 -19 -10 -14 -12 5
-22 -2 -34 -23 -9 -16 -25 -30 -34 -30 -9 0 -20 -4 -23 -10 -9 -15 -25 -12
-19 3 8 22 -66 14 -119 -12 -49 -26 -86 -55 -88 -71 -1 -6 -3 -14 -4 -20 -1
-5 -3 -14 -4 -20 0 -5 -6 -10 -11 -10 -6 0 -10 6 -9 13 3 18 -19 67 -31 67
-13 0 -13 -13 0 -26 11 -11 2 -54 -12 -54 -5 0 -12 9 -15 20 -6 23 -12 24 -35
6 -17 -12 -17 -14 1 -30 11 -10 28 -16 38 -15 21 3 165 -39 173 -51 9 -13 73
-18 105 -8 16 5 69 11 116 12 55 1 93 7 103 15 12 10 44 12 128 9 62 -2 132
-1 155 3 87 17 181 21 202 10 15 -8 32 -9 59 -2 20 6 74 11 119 13 72 2 84 6
99 25 12 17 27 23 53 23 33 0 36 2 39 33 1 17 3 41 5 52 1 14 -3 19 -15 17
-10 -2 -18 3 -18 12 0 7 -18 23 -40 34 -22 11 -40 16 -40 11 0 -15 -53 -9 -94
10 -22 11 -45 17 -52 14 -6 -2 -27 10 -45 26 -18 17 -39 31 -46 31 -17 0 -43
40 -43 68 0 17 8 26 30 33 17 6 30 15 30 20 0 18 -5 24 -17 21 -17 -4 -17 15
0 21 23 10 -16 27 -63 27 -29 0 -58 -8 -81 -23z m-389 -192 c-25 -27 -44 -33
-38 -12 4 10 44 36 57 37 3 0 -6 -11 -19 -25z m410 -7 c0 -5 -9 -4 -20 2 -11
6 -20 12 -20 14 0 2 9 2 20 -1 11 -3 20 -9 20 -15z m-60 -130 c22 -7 40 -16
40 -19 0 -16 -142 -41 -198 -36 -31 4 -75 6 -96 7 -53 0 -37 15 38 34 43 11
63 13 72 5 10 -8 19 -6 36 5 27 19 55 20 108 4z"/>
<path d="M2331 2895 c-1 -16 3 -46 8 -65 5 -19 11 -51 14 -71 5 -33 3 -37 -29
-49 -19 -8 -41 -21 -49 -30 -14 -15 -11 -16 40 -12 69 6 75 -14 8 -23 -27 -3
-57 -10 -69 -14 -11 -5 -47 -14 -80 -21 -32 -7 -72 -18 -89 -26 -16 -7 -66
-25 -110 -40 -44 -14 -98 -34 -120 -44 -22 -10 -76 -28 -120 -41 -44 -13 -82
-26 -85 -29 -3 -3 -14 -7 -25 -7 -11 -1 -38 -6 -60 -13 -22 -6 -47 -13 -55
-14 -42 -8 -170 -52 -210 -72 -25 -13 -70 -30 -101 -39 -31 -8 -64 -23 -75
-33 -10 -10 -27 -21 -36 -24 -9 -4 -24 -23 -33 -42 -16 -34 -45 -49 -45 -24 0
6 -13 -1 -30 -17 -16 -16 -33 -26 -36 -22 -12 12 -32 -13 -27 -33 3 -12 0 -20
-7 -20 -7 0 -10 7 -6 15 12 31 -32 12 -94 -41 -14 -12 -73 -63 -132 -113 -106
-91 -217 -212 -251 -273 -28 -54 -22 -111 20 -182 217 -363 546 -710 896 -945
425 -285 879 -451 1402 -512 131 -16 502 -16 635 0 714 84 1339 381 1830 871
248 247 428 496 584 809 95 189 116 249 116 323 0 62 -1 63 -32 78 -18 7 -54
33 -79 57 -68 64 -127 87 -203 78 -55 -5 -64 -4 -80 14 -11 12 -26 21 -34 21
-7 0 -39 16 -70 35 -84 51 -206 88 -477 146 -55 12 -167 43 -250 70 -82 27
-156 49 -164 49 -7 0 -46 12 -85 26 -39 14 -83 26 -97 26 -17 1 -33 11 -47 33
-25 36 -26 58 -9 135 16 68 16 92 -1 97 -8 3 -10 -1 -5 -13 5 -13 3 -16 -9
-12 -17 7 -45 -33 -34 -50 13 -22 -16 -110 -54 -163 -21 -29 -58 -81 -81 -114
-68 -97 -130 -165 -150 -165 -11 0 -19 -4 -19 -10 0 -5 -6 -10 -14 -10 -8 0
-21 -9 -29 -20 -8 -11 -36 -37 -63 -58 -27 -20 -50 -40 -52 -44 -2 -4 -19 -10
-39 -14 -19 -4 -37 -13 -40 -20 -3 -8 -14 -14 -24 -14 -10 0 -19 -5 -19 -11 0
-5 -4 -8 -8 -5 -5 3 -18 -3 -28 -13 -22 -20 -26 -21 -104 -26 -30 -1 -59 -4
-65 -5 -25 -6 -45 1 -45 15 0 8 -4 15 -9 15 -5 0 -11 -7 -15 -15 -7 -20 -26
-19 -26 0 0 9 -10 19 -22 24 -17 6 -27 2 -45 -17 -13 -14 -23 -29 -23 -33 0
-13 -54 -11 -68 3 -9 9 -12 8 -12 -5 0 -9 -4 -17 -10 -17 -5 0 -10 7 -10 15 0
18 -12 19 -27 4 -7 -7 -15 -6 -26 5 -8 9 -22 14 -29 11 -8 -3 -23 3 -33 13
-20 17 -103 49 -117 44 -5 -1 -8 3 -8 8 0 6 -8 10 -18 10 -10 0 -26 15 -37 33
-10 17 -25 38 -32 45 -7 7 -13 20 -13 29 0 10 -6 14 -20 10 -17 -4 -18 -2 -9
15 10 18 8 19 -24 17 -31 -3 -39 2 -69 41 -89 117 -99 137 -92 179 5 32 3 42
-10 47 -9 3 -16 13 -16 21 0 14 -3 13 -24 0 -22 -15 -25 -14 -46 8 -13 14 -20
30 -16 40 3 9 2 13 -4 10 -6 -3 -10 5 -10 19 0 16 -7 27 -20 31 -11 4 -20 15
-20 26 0 11 5 17 10 14 6 -3 10 -1 10 5 0 7 -7 9 -15 6 -9 -3 -18 1 -22 9 -4
12 -9 13 -19 4 -11 -9 -14 -8 -14 4 0 8 -5 17 -11 19 -7 2 -20 24 -30 48 -17
42 -18 43 -18 15z m1933 -60 c-4 -8 -8 -15 -10 -15 -2 0 -4 7 -4 15 0 8 4 15
10 15 5 0 7 -7 4 -15z m-1857 -67 c-3 -8 -6 -5 -6 6 -1 11 2 17 5 13 3 -3 4
-12 1 -19z m187 -190 c-4 -6 -10 -5 -15 3 -14 22 -10 33 6 19 8 -7 12 -17 9
-22z m-264 -32 c0 -2 -8 -10 -17 -17 -16 -13 -17 -12 -4 4 13 16 21 21 21 13z
m-60 -206 c5 0 10 -4 10 -10 0 -20 -38 -10 -43 12 -8 30 4 47 14 20 5 -12 13
-22 19 -22z m1808 -101 c-4 -79 -10 -135 -17 -142 -9 -9 -10 8 -6 68 12 158
13 170 14 188 1 9 4 17 7 17 4 0 4 -59 2 -131z m-1453 -149 c8 -129 12 -144
30 -110 8 14 14 35 15 47 0 12 5 25 11 29 19 11 96 -73 146 -160 26 -45 142
-165 206 -215 165 -126 292 -152 445 -90 140 56 234 127 327 248 22 29 58 74
81 99 22 26 46 61 53 79 12 30 27 42 63 49 14 3 16 -7 12 -89 -2 -50 -8 -108
-13 -127 -28 -108 -44 -151 -71 -189 -27 -37 -34 -41 -73 -41 -36 0 -48 -6
-74 -32 -17 -18 -43 -58 -58 -88 -15 -30 -49 -77 -75 -105 -53 -56 -131 -199
-180 -335 -17 -47 -41 -104 -53 -127 -74 -141 -88 -162 -99 -157 -20 7 -88
171 -88 210 0 20 -8 61 -17 92 -9 32 -16 61 -15 65 1 4 -4 18 -13 30 -8 12
-15 35 -15 51 0 80 -113 234 -214 291 -95 53 -194 150 -241 236 -23 41 -49 94
-59 119 -10 25 -22 54 -27 65 -9 21 -29 192 -29 247 0 20 3 29 10 22 5 -5 12
-56 15 -114z m-451 63 c-9 -15 -26 -44 -38 -65 -11 -21 -23 -38 -27 -38 -9 0
19 56 50 98 27 39 40 43 15 5z m1853 -15 c-3 -7 -5 -2 -5 12 0 14 2 19 5 13 2
-7 2 -19 0 -25z m30 -120 c-3 -8 -6 -5 -6 6 -1 11 2 17 5 13 3 -3 4 -12 1 -19z
m-1960 -10 c-3 -8 -6 -5 -6 6 -1 11 2 17 5 13 3 -3 4 -12 1 -19z m-24 -60 c-3
-18 -10 -37 -15 -43 -6 -6 -7 -5 -4 5 2 8 7 27 10 43 9 38 17 34 9 -5z m1262
-1528 c3 -5 1 -10 -4 -10 -6 0 -11 5 -11 10 0 6 2 10 4 10 3 0 8 -4 11 -10z"/>
<path d="M4000 2775 c0 -8 2 -15 4 -15 2 0 6 7 10 15 3 8 1 15 -4 15 -6 0 -10
-7 -10 -15z"/>
<path d="M2570 2725 c0 -16 16 -20 24 -6 3 5 -1 11 -9 15 -9 3 -15 0 -15 -9z"/>
<path d="M2530 2686 c0 -15 18 -31 26 -23 7 7 -7 37 -17 37 -5 0 -9 -6 -9 -14z"/>
<path d="M3285 2510 c-22 -10 -59 -19 -82 -19 -23 -1 -48 -4 -57 -7 -16 -6
-15 -9 44 -81 6 -7 10 -17 10 -23 0 -10 27 -15 64 -11 10 0 25 -4 32 -10 7 -6
17 -8 23 -5 5 3 12 0 14 -6 4 -10 8 -9 16 2 9 12 11 12 17 -3 8 -23 24 -22 24
2 0 29 14 33 56 15 36 -15 38 -15 54 6 8 11 17 33 18 47 1 14 7 32 13 39 13
16 4 34 -17 34 -8 0 -32 9 -54 20 -49 25 -121 25 -175 0z"/>
</g>
</svg>
